<?xml version="1.0" standalone="no"?><!DOCTYPE svg PUBLIC "-//W3C//DTD SVG 1.1//EN" "http://www.w3.org/Graphics/SVG/1.1/DTD/svg11.dtd"><svg t="1749803432584" class="icon" viewBox="0 0 1024 1024" version="1.1" xmlns="http://www.w3.org/2000/svg" p-id="21579" xmlns:xlink="http://www.w3.org/1999/xlink" width="200" height="200"><path d="M512 512m-512 0a512 512 0 1 0 1024 0 512 512 0 1 0-1024 0Z" fill="#FF5F5F" p-id="21580"></path><path d="M739.584 357.376h-88.9344v-28.3648c0-40.2432-35.072-73.0112-77.8752-73.0112H436.4288C393.5232 256 358.4 288.768 358.4 329.0112v28.3648H282.7776C239.8208 357.376 204.8 385.024 204.8 425.2672v269.5168c0 40.0384 35.0208 72.9088 77.9776 72.9088h456.8064c42.9056 0 77.9264-32.8704 77.9264-72.9088V425.2672c0-40.192-35.0208-67.8912-77.9264-67.8912z m-339.4048-28.3648c0-17.92 17.1008-33.9456 36.2496-33.9456h136.3456c19.0976 0 36.1472 15.9744 36.1472 33.9456v28.3648H400.1792v-28.3648z m229.632 282.3168H546.304v78.1824H462.848V611.328H379.3408v-97.6896h83.456V435.5584h83.456v78.08h83.5584v97.6896z" fill="#FFFFFF" p-id="21581"></path></svg>