<?xml version="1.0" standalone="no"?><!DOCTYPE svg PUBLIC "-//W3C//DTD SVG 1.1//EN" "http://www.w3.org/Graphics/SVG/1.1/DTD/svg11.dtd"><svg t="1744270252138" class="icon" viewBox="0 0 1024 1024" version="1.1" xmlns="http://www.w3.org/2000/svg" p-id="18716" xmlns:xlink="http://www.w3.org/1999/xlink" width="200" height="200"><path d="M0 512c0 282.768291 229.231709 512 512 512s512-229.231709 512-512S794.768291 0 512 0 0 229.231709 0 512z" fill="#E1F5F5" p-id="18717"></path><path d="M512 1024c147.800436 0 280.971636-62.626909 374.430255-162.792727a11.799273 11.799273 0 0 0-2.6624-6.413964c-14.112582-17.156655-75.138327-61.616873-135.517091-91.061527-76.599855-37.357382-147.693382-45.144436-147.693382-45.144437l-106.263273 305.105455c5.878691 0.195491 11.776 0.3072 17.705891 0.3072z" fill="#FFFFFF" p-id="18718"></path><path d="M512 1024c2.802036 0 5.594764-0.032582 8.387491-0.074473l-103.68-312.343272s-71.098182 7.7824-147.693382 45.144436c-60.378764 29.44-121.409164 73.904873-135.521745 91.061527-1.480145 1.796655-2.327273 3.84-2.615855 6.097455C224.6144 958.305745 360.634182 1024 512 1024z" fill="#FFFFFF" p-id="18719"></path><path d="M428.990836 662.621091h155.587491v101.869382l-4.049454 5.673891H434.115491l-5.124655-17.091491z" fill="#F6CAA9" p-id="18720"></path><path d="M711.377455 441.013527c0 126.626909-90.917236 229.278255-203.073164 229.278255-112.155927 0-203.077818-102.651345-203.077818-229.282909 0-126.626909 90.921891-229.278255 203.077818-229.278255 112.155927 0 203.073164 102.651345 203.073164 229.282909" fill="#F6CAA9" p-id="18721"></path><path d="M430.443055 692.158836s-17.445236-3.909818-13.288728 22.216146c4.570764 28.746473 90.549527 270.768873 90.549528 270.768873l90.963781-259.244219s8.303709-34.564655-12.776727-31.785891l-78.187054 67.1744-77.2608-69.129309z" fill="#8AD9D7" p-id="18722"></path><path d="M539.163927 895.6416s-17.235782-77.7728-17.859491-80.858764c-0.623709-3.085964 5.608727-11.729455 5.608728-16.663272s-4.365964-8.024436-9.970037-14.196364c-5.608727-6.176582-9.970036-18.310982-9.970036-18.310982v0.586473c-0.516655 1.405673-4.621964 12.264727-9.867636 18.031709-5.604073 6.171927-9.965382 9.262545-9.965382 14.196364 0 4.938473 6.232436 13.577309 5.608727 16.663272-0.623709 3.085964-16.197818 78.391855-16.197818 78.391855l31.771927 92.281018-0.623709-0.619054 31.464727-89.502255z" fill="#08AEAB" p-id="18723"></path><path d="M330.900945 454.4512c0 18.930036-13.968291 34.280727-31.199418 34.280727-17.231127 0-31.199418-15.350691-31.199418-34.280727s13.968291-34.280727 31.199418-34.280727c17.231127 0 31.199418 15.350691 31.199418 34.280727m416.77731-0.418909c0 18.930036-13.963636 34.280727-31.199419 34.280727-17.226473 0-31.194764-15.350691-31.194763-34.285382 0-18.930036 13.963636-34.280727 31.194763-34.280727 17.235782 0 31.199418 15.350691 31.199419 34.280727" fill="#F6CAA9" p-id="18724"></path><path d="M621.754182 286.468655s56.720291 25.856 18.152727 44.962909c-35.169745 10.109673-107.780655 3.365236-141.814691-1.131055-34.034036-4.491636-128.763345-35.961018-128.763345-35.961018l2.839272 23.04s71.693964 25.800145 131.59331 34.276073c59.564218 8.429382 125.933382 16.863418 154.298181-4.491637 24.953018-15.732364 18.152727-42.710109 18.152728-42.710109s31.190109-3.369891 34.592581-10.114327l-10.207418-19.106909s-11.910982 6.739782-78.848 11.236073" fill="#ECB485" p-id="18725"></path><path d="M612.296145 134.5536c-116.470691-19.483927-237.479564 41.956073-266.226036 104.899491 0 0-51.423418-8.992582-62.017164 98.909091 0 65.936291 10.593745 82.418036 10.593746 82.418036s16.253673-4.496291 15.127273 38.213818c0 0 12.474182 14.605964 18.143418-1.1264 0 0 3.402473-29.221236-1.131055-38.213818 0 0 49.92-26.973091 45.381818-122.507636 0 0 53.317818 25.856 135.000437 34.843927 81.677964 8.987927 129.3312 1.1264 129.3312 1.1264s0 51.698036 45.377163 84.293818l-2.266763 37.087418s1.131055 7.866182 9.076363 7.866182c7.940655 0 9.076364-12.362473 9.076364-12.362472s-1.135709-26.973091 17.017018-30.347637c0 0 21.550545-80.919273-5.678545-143.862691l-74.114327-79.797527s93.784436-41.956073-22.69091-61.44z" fill="#4A4A4A" p-id="18726"></path><path d="M429.405091 652.753455s29.4912 15.225018 72.275782 15.225018c50.255127 2.061964 83.069673-14.810764 83.069672-14.810764v15.220364s-55.2448 29.635491-80.165236 29.635491c-24.920436 0-75.589818-34.978909-75.589818-34.978909l0.4096-10.286546z" fill="#ECB485" p-id="18727"></path><path d="M723.018473 908.176291h-36.794182c-4.8128 0-8.727273-3.863273-8.727273-8.610909 0-4.738327 3.914473-8.6016 8.727273-8.6016h19.344291v-31.674182c0-4.747636 3.919127-8.610909 8.727273-8.610909s8.722618 3.863273 8.722618 8.610909v48.886691z m-80.7936 0h-36.798837v-48.882036c0-4.747636 3.914473-8.610909 8.722619-8.61091 4.8128 0 8.722618 3.858618 8.722618 8.61091v31.669527h19.3536c4.808145 0 8.717964 3.863273 8.717963 8.610909 0 4.738327-3.909818 8.596945-8.717963 8.596945z" fill="#08AEAB" p-id="18728"></path><path d="M715.636364 294.507055l-2.597237-8.657455-3.933091-10.053818s-20.419491 6.176582-87.351854 10.672873c0 0 56.720291 25.856 18.152727 44.962909-1.163636 0.330473-2.378473 0.646982-3.625891 0.944872 0.898327 6.5536 2.308655 15.471709 4.1984 23.226182 6.804945-2.048 12.753455-4.803491 17.575564-8.438691 24.957673-15.732364 18.152727-42.710109 18.152727-42.710109s36.026182-3.202327 39.424-9.946763z" fill="#272727" p-id="18729"></path><path d="M351.6416 895.208727c31.171491 0 56.529455-25.013527 56.529455-55.761454 0-26.042182-18.189964-47.960436-42.691491-54.0672 0.074473-0.549236 0.125673-1.112436 0.125672-1.684946v-62.063709c-8.657455 2.2016-17.259055 4.621964-25.795491 7.261091-0.046545 1.768727-0.065164 3.518836-0.065163 5.236364v49.570909c0 0.4096 0.023273 0.8192 0.060509 1.224145-25.506909 5.385309-44.692945 27.778327-44.692946 54.523346 0 30.747927 25.357964 55.761455 56.529455 55.761454z m0-84.619636c16.128 0 29.253818 12.948945 29.253818 28.858182 0 15.913891-13.125818 28.858182-29.253818 28.858182-16.128 0-29.253818-12.944291-29.253818-28.858182 0-15.909236 13.125818-28.858182 29.253818-28.858182z m375.202909 43.659636v-12.581236c0-29.6448-21.527273-54.411636-49.966545-59.904v-46.047418a530.273745 530.273745 0 0 0-27.243055-7.591564v54.188218c-27.163927 6.446545-47.415855 30.603636-47.415854 59.354764v12.585891c0 6.828218 5.627345 12.381091 12.553309 12.381091 6.921309 0 12.553309-5.557527 12.553309-12.381091v-12.585891c0-20.009891 16.495709-36.291491 36.780218-36.291491h0.856436c20.2752 0 36.780218 16.2816 36.780218 36.291491v12.585891c0 6.828218 5.632 12.381091 12.55331 12.381091s12.553309-5.552873 12.553309-12.381091z" fill="#165756" p-id="18730"></path><path d="M500.726691 111.709091C407.593891 111.709091 335.243636 142.633891 279.272727 195.584L282.912582 349.090909c48.9984-58.796218 127.543855-94.091636 217.8048-94.091636 90.233018 0 175.397236 35.2768 224.395636 94.040436L726.109091 192.456145C668.611491 141.405091 592.030255 111.709091 500.726691 111.709091" fill="#10A4A2" p-id="18731"></path></svg>