<?xml version="1.0" standalone="no"?><!DOCTYPE svg PUBLIC "-//W3C//DTD SVG 1.1//EN" "http://www.w3.org/Graphics/SVG/1.1/DTD/svg11.dtd"><svg t="1743844500026" class="icon" viewBox="0 0 1024 1024" version="1.1" xmlns="http://www.w3.org/2000/svg" p-id="28334" xmlns:xlink="http://www.w3.org/1999/xlink" width="200" height="200"><path d="M64 520.016a8 8 0 0 1-8-8c0-251.44 204.56-456 456-456a8 8 0 0 1 0 16c-242.608 0-440 197.392-440 440a8 8 0 0 1-8 8zM560 72.016h-16a8 8 0 0 1 0-16h16a8 8 0 0 1 0 16zM512 968.016a8 8 0 0 1 0-16c242.608 0 440-197.392 440-440a8 8 0 0 1 16 0c0 251.44-204.56 456-456 456zM480 968.016h-16a8 8 0 0 1 0-16h16a8 8 0 0 1 0 16z" fill="#263238" p-id="28335"></path><path d="M512 128.016c-212.08 0-384 171.92-384 384s171.92 384 384 384 384-171.92 384-384-171.92-384-384-384z m0 624c-132.544 0-240-107.456-240-240s107.456-240 240-240 240 107.456 240 240-107.456 240-240 240z" fill="#FF5252" p-id="28336"></path><path d="M512 904.016c-216.16 0-392-175.84-392-392s175.84-392 392-392 392 175.84 392 392-175.84 392-392 392z m0-768c-207.328 0-376 168.672-376 376s168.672 376 376 376 376-168.672 376-376-168.672-376-376-376z m0 624c-136.752 0-248-111.248-248-248s111.248-248 248-248 248 111.248 248 248-111.248 248-248 248z m0-480c-127.92 0-232 104.08-232 232s104.08 232 232 232 232-104.08 232-232-104.08-232-232-232zM848 104.016h-64a8 8 0 0 1 0-16h64a8 8 0 0 1 0 16z" fill="#263238" p-id="28337"></path><path d="M816 136.016a8 8 0 0 1-8-8v-64a8 8 0 0 1 16 0v64a8 8 0 0 1-8 8zM960 208.016h-64a8 8 0 0 1 0-16h64a8 8 0 0 1 0 16z" fill="#263238" p-id="28338"></path><path d="M928 240.016a8 8 0 0 1-8-8v-64a8 8 0 0 1 16 0v64a8 8 0 0 1-8 8z" fill="#263238" p-id="28339"></path><path d="M512 752.016c-26.208 0-51.376-4.352-74.992-12.112l-12.176 146.064c28.016 6.496 57.168 10.048 87.168 10.048s59.152-3.552 87.168-10.048l-12.176-146.064a239.712 239.712 0 0 1-74.992 12.112z" fill="#FFFFFF" p-id="28340"></path><path d="M512 904.016c-29.664 0-59.6-3.456-88.976-10.272a8.032 8.032 0 0 1-6.16-8.464l12.176-146.064a8.064 8.064 0 0 1 3.552-6 8.064 8.064 0 0 1 6.928-0.928c47.312 15.568 97.664 15.568 144.976 0a7.856 7.856 0 0 1 6.928 0.928 8.064 8.064 0 0 1 3.552 6l12.176 146.064a8 8 0 0 1-6.16 8.464 394.528 394.528 0 0 1-88.992 10.272z m-78.608-24.352a375.68 375.68 0 0 0 157.216 0l-10.768-129.2a246.576 246.576 0 0 1-135.68 0l-10.768 129.2z" fill="#263238" p-id="28341"></path><path d="M512 272.016c26.208 0 51.376 4.352 74.992 12.112l12.176-146.064c-28.016-6.496-57.168-10.048-87.168-10.048s-59.152 3.552-87.168 10.048l12.176 146.064A239.248 239.248 0 0 1 512 272.016z" fill="#FFFFFF" p-id="28342"></path><path d="M586.992 292.128a7.84 7.84 0 0 1-2.496-0.4 231.296 231.296 0 0 0-144.976 0 8 8 0 0 1-10.48-6.928l-12.176-146.064a8 8 0 0 1 6.16-8.464 393.12 393.12 0 0 1 177.936 0 8.032 8.032 0 0 1 6.16 8.464l-12.16 146.064a8.064 8.064 0 0 1-7.968 7.328zM512 264.016c22.864 0 45.632 3.2 67.84 9.552l10.768-129.2a375.68 375.68 0 0 0-157.216 0l10.768 129.2a246.368 246.368 0 0 1 67.84-9.552z" fill="#263238" p-id="28343"></path><path d="M272 512.016c0-26.208 4.352-51.376 12.112-74.992l-146.064-12.176A385.376 385.376 0 0 0 128 512.016c0 30 3.552 59.152 10.048 87.168l146.064-12.176A239.712 239.712 0 0 1 272 512.016z" fill="#FFFFFF" p-id="28344"></path><path d="M138.064 607.168a8.016 8.016 0 0 1-7.792-6.192 393.2 393.2 0 0 1-10.272-88.96c0-29.744 3.456-59.68 10.272-88.992a8 8 0 0 1 8.464-6.16l146.064 12.176c2.432 0.208 4.64 1.52 6 3.552a8.096 8.096 0 0 1 0.928 6.928c-7.776 23.616-11.712 48-11.712 72.496s3.936 48.88 11.712 72.48a8.048 8.048 0 0 1-6.928 10.48l-146.064 12.176-0.672 0.016z m6.272-173.776a378.56 378.56 0 0 0-8.336 78.624c0 26.24 2.816 52.64 8.336 78.608l129.216-10.768c-6.336-22.208-9.568-44.976-9.568-67.84s3.216-45.664 9.568-67.856l-129.216-10.768z" fill="#263238" p-id="28345"></path><path d="M752 512.016c0 26.208-4.352 51.376-12.112 74.992l146.064 12.176A385.6 385.6 0 0 0 896 512.016c0-30-3.552-59.152-10.048-87.168l-146.064 12.176c7.76 23.616 12.112 48.768 12.112 74.992z" fill="#FFFFFF" p-id="28346"></path><path d="M885.936 607.168l-0.672-0.032-146.064-12.16a8.064 8.064 0 0 1-6-3.552 8.096 8.096 0 0 1-0.928-6.928c7.776-23.616 11.712-47.984 11.712-72.48s-3.936-48.896-11.712-72.496a8.048 8.048 0 0 1 6.928-10.48l146.064-12.176a7.984 7.984 0 0 1 8.464 6.16 393.28 393.28 0 0 1 10.272 88.992 393.44 393.44 0 0 1-10.272 88.976 8 8 0 0 1-7.792 6.176z m-135.504-27.312l129.216 10.768a377.44 377.44 0 0 0 8.336-78.608 378.56 378.56 0 0 0-8.336-78.624l-129.216 10.768c6.336 22.208 9.568 44.992 9.568 67.856s-3.216 45.648-9.568 67.84z" fill="#263238" p-id="28347"></path></svg>