<?xml version="1.0" encoding="utf-8"?>
<!-- Generator: Adobe Illustrator 27.5.0, SVG Export Plug-In . SVG Version: 6.00 Build 0)  -->
<svg version="1.1" xmlns="http://www.w3.org/2000/svg" xmlns:xlink="http://www.w3.org/1999/xlink" x="0px" y="0px"
	 viewBox="0 0 2200 2200" style="enable-background:new 0 0 2200 2200;" xml:space="preserve">
<g id="Background">
	<rect style="fill:#FFFFFF;" width="2200" height="2200"/>
</g>
<g id="Objects">
	<g>
		<path style="fill:#C6343C;" d="M1965.638,547.001c-44.951-92.201-114.252-163.989-200.401-207.597
			c-87.193-44.171-185.859-60.144-285.326-46.202c-100.311,14.063-197.63,58.227-281.437,127.718
			c-38.703,32.094-71.66,67.088-98.473,104.504c-26.813-37.416-59.769-72.41-98.474-104.505
			c-83.806-69.491-181.125-113.654-281.436-127.717c-99.464-13.942-198.131,2.031-285.317,46.197
			c-86.159,43.613-155.46,115.401-200.41,207.602c-41.935,86.016-59.367,185.142-49.083,279.116
			c14.717,134.582,71.7,275.531,169.365,418.929c76.999,113.056,179.468,228.105,304.563,341.952
			c212.054,192.987,413.259,314.344,421.721,319.416c5.87,3.519,12.47,5.278,19.071,5.278c6.601,0,13.201-1.759,19.071-5.278
			c8.463-5.072,209.667-126.429,421.721-319.416c125.094-113.847,227.564-228.896,304.563-341.952
			c97.665-143.399,154.647-284.347,169.365-418.929C2025,732.146,2007.57,633.012,1965.638,547.001z M1940.968,818.049
			c0,0.001,0,0.002,0,0.003c-6.021,55.063-20.051,111.597-41.901,169.264c-104.014-105.368-300.564-153.398-429.254-138.273
			c-226.509,26.635-360.463,181.936-582.434,234.365c-181.949,42.971-397.992,20.982-592.162-111.623
			c-18.6-52.293-30.702-103.622-36.182-153.736c-8.78-80.232,6.143-164.946,42.02-238.535
			c37.8-77.535,95.628-137.676,167.238-173.925c57.249-29.001,119.206-43.211,182.073-43.211
			c104.699,0,211.888,39.437,303.806,115.653c48.861,40.518,86.921,85.892,113.123,134.861
			c6.454,12.063,19.026,19.595,32.708,19.595c13.682,0,26.254-7.532,32.708-19.595c26.202-48.969,64.261-94.342,113.122-134.859
			c147.112-121.981,333.291-149.742,485.89-72.438c71.602,36.244,129.428,96.385,167.23,173.92
			C1934.826,653.103,1949.748,737.816,1940.968,818.049z"/>
		<path style="fill:#FFFFFF;" d="M1193.683,1625.41c-0.077,0-0.155-0.001-0.232-0.002c-5.68-0.105-10.558-4.067-11.824-9.605
			l-78.141-341.509l-63.382,217.306c-1.471,5.046-5.973,8.611-11.222,8.886c-5.273,0.26-10.1-2.798-12.091-7.662l-38.404-93.766
			l-21.489,39.15c-2.172,3.957-6.326,6.416-10.84,6.416H771.846c-6.829,0-12.365-5.537-12.365-12.365s5.537-12.365,12.365-12.365
			h166.893l30.432-55.444c2.293-4.178,6.755-6.675,11.541-6.396c4.757,0.271,8.936,3.25,10.742,7.66l34.814,85.001l66.794-229.001
			c1.576-5.406,6.609-9.059,12.234-8.899c5.628,0.167,10.435,4.113,11.69,9.603l77.648,339.356l35.315-131.624
			c1.449-5.404,6.348-9.161,11.943-9.161h186.264c6.829,0,12.365,5.537,12.365,12.365s-5.537,12.365-12.365,12.365h-176.779
			l-45.753,170.53C1204.172,1621.661,1199.267,1625.41,1193.683,1625.41z"/>
	</g>
</g>
</svg>
