<?xml version="1.0" standalone="no"?><!DOCTYPE svg PUBLIC "-//W3C//DTD SVG 1.1//EN" "http://www.w3.org/Graphics/SVG/1.1/DTD/svg11.dtd"><svg t="1743843310150" class="icon" viewBox="0 0 1024 1024" version="1.1" xmlns="http://www.w3.org/2000/svg" p-id="21386" xmlns:xlink="http://www.w3.org/1999/xlink" width="200" height="200"><path d="M588.37 601.44c-15.25-29.23-47.79-17.28-47.79 5.71 0 22.88 23.89 45.81 47.79 68.75 23.89-22.88 47.84-45.81 47.84-68.75 0-22.99-32.58-34.94-47.84-5.71z" fill="#24D2D3" p-id="21387"></path><path d="M512 85.33C276.36 85.33 85.33 276.36 85.33 512S276.36 938.67 512 938.67c235.64 0 426.67-191.03 426.67-426.67S747.64 85.33 512 85.33z m-160.56 386.7c-26.56-19.1-45.37-54.42-48.31-95.7-20.6-7.18-18.81-37.12 2.51-41.78 10.41-52.48 46.88-91.39 90.46-92.04-12.35 19.38-21.83 42-27.28 66.77-21.39 8.56-31.79 32.84-23.23 54.22a41.671 41.671 0 0 0 18.56 21.01c4.52 45.95 22.9 92.61 56.28 125.35-78.04 14.72-180.34 57.15-211.43 136.62-72.43-93.04 59.66-162.96 142.44-174.45z m158.59 361.4c-90.24 0-267.57-42.86-267.57-159.16 0-107.26 146.96-146.67 230.45-158.23-54.78-39.41-76.1-72.65-81.12-142.79-27.43-9.62-26.2-35.54 2.51-41.78 32.02-163.11 199.29-163.11 231.38 0 28.72 6.25 30.01 32.16 2.59 41.71-5.1 70.36-26.35 103.38-81.13 142.86h-0.07c83.49 11.56 230.45 50.9 230.45 158.23 0 116.37-177.25 159.16-267.49 159.16z m301.02-186.95c-31.09-79.54-133.39-122.04-211.35-136.69 33.38-32.81 51.69-79.33 56.21-125.35 20.17-11.14 27.48-36.51 16.35-56.68a41.712 41.712 0 0 0-21.01-18.56 209.314 209.314 0 0 0-27.35-66.69l0.07-0.07c43.58 0.65 80.12 39.49 90.46 92.04 21.32 4.67 23.12 34.6 2.51 41.78-2.87 41.28-21.68 76.6-48.31 95.77 82.76 11.49 214.85 81.34 142.42 174.45z" fill="#24D2D3" p-id="21388"></path></svg>