<?xml version="1.0" standalone="no"?><!DOCTYPE svg PUBLIC "-//W3C//DTD SVG 1.1//EN" "http://www.w3.org/Graphics/SVG/1.1/DTD/svg11.dtd"><svg t="1743853436416" class="icon" viewBox="0 0 1024 1024" version="1.1" xmlns="http://www.w3.org/2000/svg" p-id="36610" xmlns:xlink="http://www.w3.org/1999/xlink" width="200" height="200"><path d="M404 374h216v24H404zM408 660h208v24H408zM424 320h176v24h-176zM424 606h176v24h-176zM424 428h176v24h-176zM424 712h176v24h-176z" fill="#4E7572" p-id="36611"></path><path d="M655.686 370.508h253.028v24H655.686zM899.124 535.458h-90.232a55.536 55.536 0 0 1-55.472-55.472 31.506 31.506 0 0 0-31.47-31.472h-75.6v-24h75.6a55.534 55.534 0 0 1 55.47 55.472 31.508 31.508 0 0 0 31.472 31.472h90.232zM721.95 340.502h-77.932v-24h77.932a31.506 31.506 0 0 0 31.47-31.47 55.534 55.534 0 0 1 55.472-55.472h90.232v24h-90.232a31.508 31.508 0 0 0-31.472 31.472 55.534 55.534 0 0 1-55.47 55.47z" fill="#B0B5CA" p-id="36612"></path><path d="M989.984 343.844A54.678 54.678 0 1 0 1006 382.508a54.316 54.316 0 0 0-16.016-38.664z" fill="#F3CE7D" p-id="36613"></path><path d="M980.4 484.8a54.68 54.68 0 1 0 16.016 38.666A54.324 54.324 0 0 0 980.4 484.8z" fill="#4CA987" p-id="36614"></path><path d="M980.4 202.894a54.68 54.68 0 1 0 16.016 38.666 54.746 54.746 0 0 0-16.016-38.666z" fill="#E87187" p-id="36615"></path><path d="M115.286 657.15h253.028v24H115.286zM215.108 822.098H124.876v-24h90.232a31.508 31.508 0 0 0 31.472-31.472 55.534 55.534 0 0 1 55.47-55.47h75.6v24h-75.6a31.506 31.506 0 0 0-31.47 31.47 55.534 55.534 0 0 1-55.472 55.472zM379.982 627.144h-77.932a55.534 55.534 0 0 1-55.47-55.472 31.506 31.506 0 0 0-31.472-31.472H124.876v-24h90.232a55.534 55.534 0 0 1 55.472 55.47 31.506 31.506 0 0 0 31.47 31.472h77.932z" fill="#B0B5CA" p-id="36616"></path><path d="M111.344 630.486a54.654 54.654 0 1 0 0 77.328 54.32 54.32 0 0 0 0-77.328z" fill="#F3CE7D" p-id="36617"></path><path d="M120.936 771.434a54.68 54.68 0 1 0 0 77.328 54.324 54.324 0 0 0 0-77.328z" fill="#4CA987" p-id="36618"></path><path d="M120.936 489.536a54.68 54.68 0 1 0 0 77.33 54.746 54.746 0 0 0 0-77.33z" fill="#E87187" p-id="36619"></path><path d="M572.94 528.24l-61.78-38.4c-27.36-16.94-48.74-32.12-63.48-48.86-14.22-16.14-21.68-33.72-21.68-55.74v-0.34a79.8 79.8 0 0 1 19.04-52.98c14.72-17.96 37.17-33.9 66.09-51.82l62.092-38.32 0.468-0.7c48.02-32.66 89.954-74.04 89.954-142.78a32.502 32.502 0 0 0-65 0c0 45.32-32.34 71.86-86.64 105.42L451.04 241.6c-48.34 32.74-90.24 74.18-90.24 143.32s41.2 110.56 91.2 143.3V528l60.1 38.07c29.3 18.12 51.84 34.2 66.72 52.274a79.896 79.896 0 0 1 19.18 53.2v0.04a79.712 79.712 0 0 1-19.26 53.18c-14.88 18.08-37.62 34.12-66.92 52.24l-61.58 38.4c-37.52 25.52-71.31 56.36-84.31 101.42a32.424 32.424 0 0 0 31.4 41.36 32.74 32.74 0 0 0 31.282-23.56c9.518-31.94 39.16-54.58 83.338-81.9l60.962-37.86c48.34-32.74 90.72-74.2 90.72-143.32S621.28 561 572.94 528.24z" fill="#629996" p-id="36620"></path><path d="M626.646 958.184a32.464 32.464 0 0 0 31.474-41.012c-17.972-63-76.572-98.232-129.302-129.94-64.4-38.724-103.492-65.834-103.492-115.69s39.1-76.964 103.492-115.684c63.2-38 134.838-81.08 134.838-170.946S592 251.97 528.8 213.964c-64.4-38.714-103.478-65.82-103.478-115.672a32.502 32.502 0 0 0-65 0c0 89.862 71.638 132.938 134.842 170.942 64.4 38.72 103.488 65.826 103.488 115.678s-39.092 76.962-103.484 115.688c-63.2 38-134.842 81.08-134.842 170.948s71.638 132.944 134.84 170.954c53.422 32.124 89.436 56.258 100.154 92.02a32.816 32.816 0 0 0 31.326 23.668z" fill="#53D8D8" p-id="36621"></path><path d="M635.32 934.516c-10.718-35.762-46.732-59.896-100.154-92.02-63.2-38-134.838-81.088-134.838-170.954s71.634-132.942 134.84-170.948c64.4-38.72 103.488-65.832 103.488-115.682s-39.096-76.958-103.488-115.678c-63.2-38-134.84-81.08-134.84-170.942a32.414 32.414 0 0 1 12.504-25.3 32.474 32.474 0 0 0-52.504 25.3c0 89.862 71.634 132.938 134.84 170.942 64.4 38.72 103.488 65.826 103.488 115.678s-39.096 76.962-103.488 115.688c-63.2 38-134.84 81.08-134.84 170.948s71.634 132.944 134.838 170.954c53.422 32.124 89.436 56.258 100.154 92.02a32.614 32.614 0 0 0 51.42 16.772 33.462 33.462 0 0 1-11.42-16.778z" fill="#43AAA7" p-id="36622"></path><path d="M689.684 778.628a12 12 0 0 1-10.4-17.96c15.478-27.058 23-56.214 23-89.128a184.02 184.02 0 0 0-8.298-55.71 12 12 0 1 1 22.878-7.256 208 208 0 0 1 9.42 62.966 200.82 200.82 0 0 1-26.17 101.044 12 12 0 0 1-10.43 6.044zM689.704 588.456a12 12 0 0 1-10.426-6.042 186.76 186.76 0 0 0-5.954-9.702 12 12 0 1 1 20.062-13.17 209.42 209.42 0 0 1 6.722 10.952 12 12 0 0 1-10.4 17.962z" fill="#D4E1F4" p-id="36623"></path></svg>