<?xml version="1.0" standalone="no"?><!DOCTYPE svg PUBLIC "-//W3C//DTD SVG 1.1//EN" "http://www.w3.org/Graphics/SVG/1.1/DTD/svg11.dtd"><svg t="1748076057735" class="icon" viewBox="0 0 1024 1024" version="1.1" xmlns="http://www.w3.org/2000/svg" p-id="6495" xmlns:xlink="http://www.w3.org/1999/xlink" width="200" height="200"><path d="M800.90112 731.9296c0 50.40128-129.66912 91.264-289.62816 91.264S221.6448 782.336 221.6448 731.9296s129.66912-91.264 289.62816-91.264 289.62816 40.8576 289.62816 91.264z" fill="#64F4AF" p-id="6496"></path><path d="M275.7632 777.61024l60.00128 1.67936q3.23584 0.09216 6.6304 0.09216c86.46656 0 245.80096-45.40416 279.87968-219.136l239.1296-289.6896a96.64512 96.64512 0 0 0-17.65888-138.78272l-1.21344-0.89088A94.28992 94.28992 0 0 0 706.048 158.208L503.7056 482.304z m129.77664-68.43392l129.15712-167.32672 25.6 18.21184c-24.09984 97.39264-98.47296 134.79936-154.75712 149.11488zM757.61152 190.5664a33.92 33.92 0 0 1 22.49728-15.92832 33.58208 33.58208 0 0 1 26.81344 5.88288l1.32096 0.96768a34.87744 34.87744 0 0 1 6.46144 49.89952L588.6464 505.23648l-1.18272-0.83968-17.86368-12.71808z m-85.67296 384.24576l-8.67328 60.71296c150.46656 21.98016 218.15296 69.87264 218.15296 96.86016 0 17.54624-29.85984 45.568-96.55808 68.608-72.43264 25.01632-169.33376 38.79424-272.85504 38.79424s-200.43264-13.77792-272.86016-38.79424c-66.69824-23.04-96.55808-51.05664-96.55808-68.608 0-26.40384 65.94048-73.6512 212.53632-96.02048l-9.05216-60.65152C180.66432 600.95488 81.92 659.52256 81.92 732.38528 81.92 843.1616 298.27584 901.12 512 901.12s430.08-57.9584 430.08-168.73472c0-73.95328-100.992-132.83328-270.14144-157.57312z" fill="#242F44" p-id="6497"></path></svg>