<?xml version="1.0" standalone="no"?><!DOCTYPE svg PUBLIC "-//W3C//DTD SVG 1.1//EN" "http://www.w3.org/Graphics/SVG/1.1/DTD/svg11.dtd"><svg t="1743843774408" class="icon" viewBox="0 0 1024 1024" version="1.1" xmlns="http://www.w3.org/2000/svg" p-id="36968" xmlns:xlink="http://www.w3.org/1999/xlink" width="200" height="200"><path d="M64.21 703.91H40.56" fill="#3296FA" p-id="36969"></path><path d="M131.3 588.21c9.75-1.62 16.25-6.5 22.75-11.37 6.5-6.5 9.74-13 8.12-21.12v-6.5C162.17 424.11 232 308.75 340.9 247c8.12-4.88 11.37-11.38 14.62-17.88 1.62-8.12 1.62-16.24-3.25-22.74-4.87-8.13-9.75-13-17.87-14.63-9.75-3.25-16.25-1.62-24.37 3.25-130 73.12-209.6 209.6-209.6 355.83v13c1.62 13 14.62 24.37 30.87 24.37z m544.3-339.58C786.09 310.37 856 425.73 856 550.84v4.88q-2.44 12.18 4.87 19.49c6.5 8.13 13 13 24.37 13h3.25c14.62 0 27.62-11.37 29.25-27.62v-11.37A404.73 404.73 0 0 0 708.1 195c-8.12-4.87-14.62-4.87-24.37-3.25-8.13 1.63-13 8.13-19.5 14.63-4.87 8.12-6.5 16.24-3.25 22.74q4.88 14.63 14.62 19.5zM700 841.68h-8.13l-8.12 3.25c-107.24 61.74-248.6 61.74-355.83 0l-3.25-1.62h-9.77c-17.87 0-29.25 13-29.25 30.87 0 11.37 4.88 19.49 14.63 27.62C362 937.54 433.51 957 508.25 957c73.12 0 146.23-19.5 208-56.87 14.63-11.37 17.88-19.49 17.88-27.62-3.25-16.25-16.25-30.87-34.12-30.87z" fill="#7DB6F9" p-id="36970"></path><path d="M943.69 710.07a108.25 108.25 0 0 0-52-69.86c-19.5-13-40.62-13-55.24-13-29.25 0-55.25 11.37-76.37 30.87l-1.62 1.62-92.62-53.61v-1.63q9.75-29.25 9.75-53.62c0-78-55.24-144.6-133.23-160.85h-1.62V281.13h1.62c47.12-13 79.62-56.87 79.62-107.24-3.25-60.12-52-110.48-113.74-110.48s-110.48 50.36-110.48 112.11c0 48.74 30.88 91 79.62 107.23H479v105.61h-3.25c-78 14.63-133.23 82.87-133.23 160.86q0 29.25 9.75 53.62v1.62l-92.61 53.62-1.66-1.63c-21.12-17.87-50.37-29.24-76.36-29.24-22.75 0-43.87 8.12-55.25 13-26 13-43.87 37.37-50.36 66.61s-6.5 60.12 8.12 84.49c16.25 35.75 53.62 56.87 95.86 56.87 26 0 45.5-9.75 55.25-13 42.24-22.75 63.36-71.49 50.36-121.86v-1.62l91-52 1.63 1.63c30.87 35.74 78 56.87 123.48 56.87 48.74 0 92.61-19.5 125.11-56.87l1.62-1.63 91 52v1.62c-9.75 45.5 9.75 92.62 50.37 120.24 16.25 11.37 42.25 17.87 66.62 17.87 4.87 0 9.75 0 13-1.63 34.12-4.87 60.11-21.12 79.61-52 21.12-35.74 21.12-58.49 14.62-87.74z m-713.28 39c-3.25 13-13 22.74-24.37 29.24-8.13 6.5-14.62 8.13-26 8.13-17.87 0-35.74-11.38-43.87-26-6.5-11.37-9.75-24.37-6.5-37.37s11.38-22.75 24.38-30.87c8.12-4.87 14.62-8.12 24.37-8.12 17.87 0 35.74 11.37 43.87 26 9.71 12.99 9.71 27.61 8.12 38.99z m225.85-573.55a50.37 50.37 0 1 1 50.36 50.36c-27.62 0-50.36-24.37-50.36-50.36z m52 477.68c-56.87 0-105.61-45.49-105.61-104s47.12-104 105.61-104c56.87 0 105.61 45.5 105.61 104-1.63 56.89-47.13 104-105.62 104z m372.07 107.24c-9.75 16.25-24.38 24.37-40.62 24.37-9.75 0-21.13-1.62-29.25-8.12-11.37-8.13-21.12-17.87-24.37-32.5-3.25-11.37-1.63-22.74 6.5-32.49 9.75-16.25 26-26 42.24-27.62h4.88c9.74 0 19.49 1.62 29.24 11.37 19.5 16.25 22.75 40.62 11.38 64.99z" fill="#0177FF" p-id="36971"></path><path d="M302.29 666.81c-3.1 0.17-6.21 0.25-9.33 0.26h5.27a33.9 33.9 0 0 0 4.06-0.26z" fill="#020202" p-id="36972"></path></svg>