<?xml version="1.0" standalone="no"?><!DOCTYPE svg PUBLIC "-//W3C//DTD SVG 1.1//EN" "http://www.w3.org/Graphics/SVG/1.1/DTD/svg11.dtd"><svg t="1743853460518" class="icon" viewBox="0 0 1024 1024" version="1.1" xmlns="http://www.w3.org/2000/svg" p-id="38567" xmlns:xlink="http://www.w3.org/1999/xlink" width="200" height="200"><path d="M805.588473 824.949311l-0.170602 0.127952-33.56608-36.551627c7.677121-7.037361 12.02749-13.562914 14.202674-21.495939 2.303136-7.719772 2.942896-16.420509 1.91928-26.059561-0.767712-9.468449-4.265067-20.472323-8.444833-31.390895a419.72527 419.72527 0 0 0-14.927735-33.267525l-1.91928-3.881211c7.805073-0.426507 16.761714-0.426507 26.65667-0.298554 8.060977 0 16.633762 0 25.675705-0.213254 3.540006 6.3123 7.080012 13.008455 10.449415 20.045816 7.421217 15.951352 14.245325 34.205839 14.415927 54.464909 0.170603 5.843142-0.127952 11.942188-0.980965 18.254488a72.634096 72.634096 0 0 1-4.990129 18.97955c-5.629889 14.287975-14.501229 29.428964-28.320047 41.285851m-16.50581-197.984423c-14.501229 1.066267-29.087759 1.791328-42.906577 3.412054l-3.284102 0.341205a100.868841 100.868841 0 0 1-7.805073-26.01691c-0.426507-4.776875-1.108917-9.809655-0.938314-14.58653 0.213253-4.819526 1.108917-9.5111 2.900245-14.117373v-0.127952l47.427548 14.885085a33.139573 33.139573 0 0 0-1.364821 19.61931c1.023616 5.07543 3.412054 10.662668 5.971094 16.591111" fill="#3090D8" p-id="38568"></path><path d="M930.213739 586.660002l0.04265-0.341205-48.749718-9.383148c-1.450123 8.700737-5.118081 14.927735-9.127244 20.387022a55.531176 55.531176 0 0 1-13.733517 12.496647c-9.937607 6.3123-24.012329 10.534716-39.025365 13.34966a261.87513 261.87513 0 0 1-30.537882 3.838561c-14.458578 1.023616-29.130409 1.748678-42.906577 3.326752l-3.326752 0.426507a125.56358 125.56358 0 0 0-31.945354 6.269649c-5.288683 1.87663-10.74797 3.838561-15.18364 6.738806-4.520971 2.857595-8.188929 6.653505-12.155441 10.449415l-0.127952 0.127952 37.44729 32.627765c4.606273-4.648923 8.700737-7.762422 13.648216-9.980258a54.166354 54.166354 0 0 1 15.482194-3.753259c3.838561-0.511808 8.23158-0.597109 12.624599-0.853013 7.805073-0.426507 16.804365-0.383856 26.65667-0.298555 8.103628 0 16.676413 0.085301 25.718356-0.213254a176.403182 176.403182 0 0 0 51.777917-9.5111c7.037361-2.388438 13.648215-5.71519 19.960514-10.022908 6.440252-4.265067 12.795202-9.468449 18.766296-15.780748 6.184348-6.099046 10.833271-13.648215 15.013037-22.1357 4.051814-8.444833 7.933025-17.700029 9.681703-27.722937" fill="#93E505" p-id="38569"></path><path d="M930.341691 586.105544a137.121913 137.121913 0 0 0 0.767712-37.831147 113.024283 113.024283 0 0 0-19.107501-43.077179h-1.535425l-2.047232 1.961931a178.19451 178.19451 0 0 1-38.598859 27.339081c2.388438 2.814944 4.563622 5.629889 6.269649 8.530134a50.7543 50.7543 0 0 1 5.459286 33.907285l48.749719 9.383148v-0.213253M719.817971 799.700112a101.508601 101.508601 0 0 1-12.709901-3.83856 165.740514 165.740514 0 0 1-13.434962-5.928444 316.894498 316.894498 0 0 1-22.306302-12.027489 553.605731 553.605731 0 0 0-1.023616-22.007747c-0.725061-16.164605-2.814944-33.821983-2.431088-49.815986 0-4.648923 0.554459-8.87134 0.853013-13.477613a79.756758 79.756758 0 0 1 2.047233-13.136407c1.066267-4.819526 2.985547-8.913991 4.947478-13.221708a41.072598 41.072598 0 0 1 7.63447-11.771586l0.085301-0.085301 37.447291 32.585114a32.414511 32.414511 0 0 0-8.359532 17.486775c-1.407472 6.184348-1.706027 13.434962-0.895664 22.562206 0.63976 8.913991 2.772294 19.875213 4.222417 31.134991 1.492774 11.302428 3.070848 23.799075 3.753259 36.978133l0.170603 4.563622" fill="#70B602" p-id="38570"></path><path d="M910.423827 505.154567h-86.154359c-13.30701 7.165313-27.040526 14.160023-39.579824 21.623891-10.108209 6.440252-21.709192 13.051106-29.727519 21.112083a54.592861 54.592861 0 0 0-5.544588 6.226998c-2.047232 2.132534-3.838561 4.265067-5.459286 6.568204a44.612604 44.612604 0 0 0-6.824107 14.970386l-0.085302 0.213253 47.384898 14.842434a34.205839 34.205839 0 0 1 8.27423-15.098338c3.412054-3.625307 7.677121-6.824108 13.093757-10.022908 8.700737-5.71519 21.026782-11.131826 35.400058-17.444125 9.255196-4.051814 19.192803-8.402183 28.618601-13.648215 12.923154-7.037361 26.230164-15.652797 38.598859-27.339081l2.004582-1.961931M805.161967 825.333167l0.255904-0.255904-33.56608-36.551627c-6.738806 5.971094-12.795202 9.681703-19.491357 11.643634-5.971094 1.535424-12.240743 2.089883-19.107502 1.663376a82.657004 82.657004 0 0 1-13.434961-2.132534 108.673914 108.673914 0 0 1-26.144863-9.809654 316.894498 316.894498 0 0 1-22.306302-11.984839l-2.857595-1.706027 42.991878 74.340122h0.255904c6.525553 1.492774 13.392311 2.51639 20.685577 2.814945 7.250614 0.298555 15.013037 0.085301 22.604856-1.791329a104.750052 104.750052 0 0 0 50.114541-26.230163" fill="#39AAFF" p-id="38571"></path><path d="M381.768739 919.676455L381.555486 919.591153l14.885084-47.342246c9.980257 2.814944 18.041235 2.686992 25.888959 1.108917 7.805073-1.663376 15.524845-4.947478 23.50052-11.302428 7.933025-6.013745 15.567496-13.989421 22.946062-22.988713a272.281894 272.281894 0 0 0 21.325337-29.940772l2.388437-3.667958c4.265067 6.696156 8.743388 14.671831 13.605565 23.41522l6.269649 10.961222 6.781457 10.833271a214.404931 214.404931 0 0 1-12.155442 19.448707c-10.065559 14.032071-22.391603 28.789204-39.835728 39.878379-9.937607 5.885793-21.709192 10.662668-35.229456 13.30701-7.762422 1.833979-15.780749 1.450123-24.225582 0.938315a126.501895 126.501895 0 0 1-25.931609-4.563622m163.309426-113.664043c-8.103628-11.686284-16.121954-24.524137-24.396185-35.826565L518.677398 767.541505c5.757841-7.549169 11.942188-14.245325 18.766296-19.320754 3.838561-3.412054 7.890374-6.226998 12.198093-8.316882 4.222417-2.345787 8.956641-3.070848 13.648215-4.691574L563.417954 735.169645l10.747969 48.493815c-3.667958 1.151568-6.909409 2.132534-9.809654 3.454704a34.077887 34.077887 0 0 0-7.890375 5.288683 66.705652 66.705652 0 0 0-11.387729 13.605565" fill="#3090D8" p-id="38572"></path><path d="M650.425326 907.99017l0.341206-0.127952-16.207256-46.91574a53.27069 53.27069 0 0 1-11.558332 2.900246 53.825149 53.825149 0 0 1-10.577367-0.426507 57.151901 57.151901 0 0 1-17.785331-5.928443c-10.321463-5.032779-21.026782-15.140989-30.964388-27.040527a346.110209 346.110209 0 0 1-18.553043-24.438835c-8.103628-11.686284-16.121954-24.524137-24.438835-35.826565l-2.004582-2.644342c-6.653505-8.444833-13.690866-17.913283-21.538589-24.524137-8.615436-6.781457-17.785331-13.221709-28.575951-14.58653h-0.213253l-9.425799 48.707069c6.397601 0.980965 11.089175 3.241451 15.482194 6.610854 3.79591 2.857595 7.250614 7.250614 11.003874 11.643634 2.345787 2.985547 4.691574 6.3123 7.080011 10.065558 4.265067 6.696156 8.743388 14.671831 13.605565 23.45787l6.269649 10.918572 6.781457 10.833271c8.913991 13.648215 19.619309 28.149444 34.077887 40.432838 11.089175 8.786039 24.822691 16.420509 41.712358 20.770878 8.27423 1.706027 17.230872 2.217835 26.65667 1.748677 4.691574-0.213253 9.5111-0.725061 14.373277-1.492773 4.904827-0.767712 9.596401-2.473739 14.458578-4.137116" fill="#93E505" p-id="38573"></path><path d="M650.979785 907.776917c8.402183-2.985547 16.207256-6.781457 23.329918-11.003874 7.037361-4.350369 13.008455-9.937607 18.297138-15.354242 8.913991-9.383148 15.354242-19.320755 19.320755-30.111375l-0.767712-1.364821-2.686992-0.63976a159.897372 159.897372 0 0 1-11.600983-3.582657 210.864926 210.864926 0 0 1-31.348245-16.079303c-2.55904 6.824108-5.757841 12.795202-9.724353 17.614727a52.033821 52.033821 0 0 1-21.197384 13.648216l16.164605 46.95839 0.213253-0.085301M360.784608 832.327877a150.130368 150.130368 0 0 1-4.648923-27.381732 213.210713 213.210713 0 0 1-0.63976-25.334499 288.318547 288.318547 0 0 0 18.510392-11.771586c14.117373-9.681703 27.808239-19.0222 41.925611-26.997876 8.188929-4.734225 16.377858-8.658087 24.396185-10.705319 4.691574-1.23687 9.425799-2.644342 14.074722-2.857595 4.606273-0.426507 9.084593 0.426507 13.818818 1.108918l0.085301 0.04265-9.383148 48.707069a36.76488 36.76488 0 0 0-19.192803 1.023616c-6.056396 1.91928-12.752551 6.35495-20.045816 11.131825-7.421217 4.904827-15.610146 11.515682-24.73739 18.808947l-14.58653 11.259778a241.146903 241.146903 0 0 1-15.738098 10.620017l-3.838561 2.345787" fill="#70B602" p-id="38574"></path><path d="M711.159884 849.985256l-43.162481-74.638678c-12.453996-7.165313-25.590404-15.908701-38.385605-23.244616a167.36124 167.36124 0 0 0-16.249906-8.274231 108.759215 108.759215 0 0 0-16.761715-6.909409c-5.587238-1.87663-10.875922-2.217835-16.50581-2.985547a44.015494 44.015494 0 0 0-16.50581 1.23687h-0.170603l10.747969 48.536465a33.60873 33.60873 0 0 1 17.316174-0.127952c4.819526 1.27952 9.724353 3.412054 15.055687 6.056396 9.340497 4.819526 20.30172 12.965804 32.96897 22.391603 8.103628 5.928444 16.548461 11.728935 25.97426 17.657378a216.963972 216.963972 0 0 0 31.390895 16.079304c3.753259 1.27952 7.63447 2.51639 11.600983 3.582656l2.686992 0.639761M381.21428 919.505852l0.341206 0.085301 14.885084-47.342246a56.554792 56.554792 0 0 1-19.66196-11.686285 48.280561 48.280561 0 0 1-11.174476-15.183639 87.007372 87.007372 0 0 1-4.776875-13.051106 146.419759 146.419759 0 0 1-4.691574-27.424382 221.527594 221.527594 0 0 1-0.63976-25.291849l0.085301-3.412054-42.991878 74.297472 0.085301 0.298554c3.582657 13.349661 10.406764 25.761006 20.813529 37.873798 11.089175 13.776167 28.106793 23.628473 47.726102 30.793785" fill="#39AAFF" p-id="38575"></path><path d="M88.076207 599.455204v-0.213253l48.408514-10.705319c2.601691 10.022908 6.482902 17.017618 11.643633 23.031363 4.904827 6.099046 12.795202 10.79062 21.751843 14.671832 9.084593 3.923862 19.704611 6.610854 31.04969 8.530134 11.558332 1.833979 24.396185 2.686992 36.850181 3.412054l4.307718 0.298555c-3.667958 7.037361-8.786039 15.140989-13.520263 23.45787-3.838561 6.909409-8.103628 14.287975-12.155442 22.135699a391.959682 391.959682 0 0 1-23.031363-0.725062 139.979508 139.979508 0 0 1-54.422258-14.671831 96.944979 96.944979 0 0 1-29.002458-23.927027c-10.662668-11.728935-17.273522-27.637636-21.879795-45.295015m180.07114 84.576284l18.595693-38.897413 1.364822-3.070849c9.169895 1.27952 17.74268 3.497355 26.272814 6.3123 4.734225 1.706027 9.041943 3.966513 12.837853 6.781457 3.923862 2.686992 8.018326 5.459286 11.259777 9.169894l0.085302 0.127952-36.551627 33.60873c-5.07543-5.800491-10.833271-8.316881-16.719064-10.705318a63.976009 63.976009 0 0 0-17.14557-3.326753" fill="#3090D8" p-id="38576"></path><path d="M232.406083 826.356783l0.255904 0.213253 32.585114-37.44729a52.673581 52.673581 0 0 1-13.30701-17.870632 45.63622 45.63622 0 0 1-3.625307-18.425091 112.043317 112.043317 0 0 1 7.634471-40.176933c3.412054-9.468449 7.762422-19.0222 12.240743-28.575951l18.553042-38.982715 1.407473-3.070848a186.38344 186.38344 0 0 0 10.364113-30.708485c1.23687-5.629889 1.663376-11.089175 1.151568-16.292557a41.499105 41.499105 0 0 0-2.55904-15.780749l-0.042651-0.213253-46.95839 16.121954a32.32921 32.32921 0 0 1 1.620725 16.847016c-0.938315 4.862177-1.833979 9.596401-4.265067 15.22629a130.59636 130.59636 0 0 1-5.331334 11.217127c-3.667958 7.037361-8.786039 15.140989-13.562914 23.543171-3.881211 6.866758-8.103628 14.202674-12.155442 22.093049-7.59182 14.714482-15.013037 31.390895-17.74268 49.688034-2.132534 14.074722-2.686992 30.367279 2.942897 46.361281 2.55904 8.103628 6.35495 16.335208 11.259777 24.396184 5.373985 7.59182 11.942188 15.013037 19.534008 21.837145" fill="#93E505" p-id="38577"></path><path d="M232.83259 826.740639c6.397601 6.184348 13.818818 10.79062 21.282686 14.415927 7.421217 3.753259 14.885085 6.653505 22.135699 8.658087 12.624599 2.857595 24.907993 2.857595 35.826565 1.492773l0.810363-1.364821-0.725062-2.729643a161.091591 161.091591 0 0 1-4.520971-46.745137c-7.080012 1.023616-13.648215 0.980965-19.747262-0.127952a42.863926 42.863926 0 0 1-22.647507-11.174477l-32.585114 37.447291 0.170603 0.127952M152.990531 537.782332a149.703861 149.703861 0 0 1 21.751843-17.70003c6.696156-4.648923 13.861469-9.041943 21.240035-13.221708 6.482902 3.412054 13.136407 6.824108 19.875213 10.065559 15.268941 7.463868 29.599567 14.714482 44.271399 22.903411 8.23158 4.691574 14.970386 10.022908 21.325336 15.908701 3.753259 3.241451 6.909409 6.824108 9.383148 10.747969a35.911866 35.911866 0 0 1 3.15615 6.099047c1.066267 2.004582 2.175184 4.094465 2.985547 6.35495l0.04265 0.127952-46.95839 16.079303a42.906577 42.906577 0 0 0-10.620018-16.036653c-4.691574-4.265067-11.217127-8.060977-19.66196-11.856887-16.036653-7.847724-39.153318-15.22629-62.909742-27.29643l-3.881211-2.132534" fill="#70B602" p-id="38578"></path><path d="M312.887903 849.985256l43.16248-74.638678c0.426507-15.055687 0.853013-29.81282 0.853014-44.655254a141.813487 141.813487 0 0 0-3.369403-36.253072 58.94323 58.94323 0 0 0-5.501937-16.121954c-2.772294-4.648923-5.544587-9.5111-9.340497-13.733517l-0.127952-0.170602-36.551627 33.60873c4.563622 4.904827 6.610854 10.108209 8.615436 15.140989 1.535424 4.520971 2.303136 9.724353 2.431088 15.908701 0.170603 5.373985-0.213253 11.558332-0.853013 18.339789-0.426507 6.525553-1.151568 13.648215-1.961931 21.325336-0.980965 9.809655-2.132534 20.472323-2.644342 31.68945-0.682411 15.183639 0.511808 30.367279 4.563622 46.830438l0.725062 2.686993" fill="#39AAFF" p-id="38579"></path><path d="M87.948255 598.900746l0.085301 0.341205 48.493815-10.705319a36.636928 36.636928 0 0 1-1.322171-12.198092c0.127952-3.753259 0.63976-7.250614 1.492774-10.620018 1.450123-5.928444 3.966513-11.643634 7.63447-17.316173 2.260486-3.582657 5.07543-7.080012 8.658087-10.577367a149.703861 149.703861 0 0 1 21.751843-17.74268c6.696156-4.648923 13.904119-8.999292 21.240035-13.264359L198.840004 505.197218H112.9842L112.770947 505.410471A111.915365 111.915365 0 0 0 90.549946 542.303303c-3.412054 8.188929-4.265067 17.14557-4.904827 26.741972-0.255904 9.5111-0.426507 19.747261 2.303136 29.855471" fill="#39AAFF" p-id="38580"></path><path d="M218.459313 185.402474l0.170603-0.127952 33.566079 36.551627c-7.677121 7.037361-12.02749 13.562914-14.202674 21.495939a66.321796 66.321796 0 0 0-1.91928 26.059561c0.767712 9.468449 4.265067 20.472323 8.444833 31.390895 4.265067 10.961223 9.468449 22.221 14.927736 33.267524l1.91928 3.881212c-7.805073 0.426507-16.761714 0.426507-26.65667 0.341205a751.291599 751.291599 0 0 0-25.675705 0.170603 337.96393 337.96393 0 0 1-10.449415-20.045817c-7.421217-15.951352-14.245325-34.205839-14.415927-54.464909-0.170603-5.843142 0.127952-11.942188 0.980965-18.254487 0.767712-6.397601 2.431088-12.7099 4.990129-18.97955 5.629889-14.287975 14.501229-29.428964 28.320046-41.285851m16.505811 197.984423c14.501229-1.066267 29.087759-1.791328 42.906576-3.369404l3.284102-0.383856c3.710609 8.743388 6.738806 17.572077 7.805073 26.016911 0.426507 4.776875 1.108917 9.809655 0.938315 14.58653a43.887542 43.887542 0 0 1-2.900246 14.117372v0.127952L239.528746 419.639968a33.139573 33.139573 0 0 0 1.364821-19.619309c-1.023616-5.07543-3.412054-10.662668-5.971094-16.591112" fill="#3090D8" p-id="38581"></path><path d="M93.834048 423.691782l-0.042651 0.341206 48.749719 9.383148c1.450123-8.700737 5.118081-14.927735 9.127244-20.387022 3.667958-4.734225 8.188929-8.87134 13.733517-12.496647 9.937607-6.3123 24.012329-10.534716 39.025365-13.349661a261.87513 261.87513 0 0 1 30.537882-3.83856c14.458578-1.023616 29.130409-1.748678 42.906576-3.326753l3.326753-0.426506c11.473031-1.023616 22.519555-2.729643 31.945354-6.269649 5.288683-1.87663 10.74797-3.838561 15.183639-6.738806 4.520971-2.857595 8.188929-6.653505 12.155442-10.449415l0.127952-0.127952-37.447291-32.627765a44.697905 44.697905 0 0 1-13.648215 9.980258 54.166354 54.166354 0 0 1-15.482194 3.753259c-3.838561 0.511808-8.23158 0.597109-12.624599 0.853013-7.805073 0.426507-16.804365 0.383856-26.656671 0.298555-8.103628 0-16.676413-0.085301-25.718355 0.213253a176.403182 176.403182 0 0 0-51.777917 9.5111 82.657004 82.657004 0 0 0-19.960515 10.022908 111.019701 111.019701 0 0 0-18.766296 15.780749 80.652422 80.652422 0 0 0-15.013036 22.135699 106.882586 106.882586 0 0 0-9.681703 27.722938" fill="#93E505" p-id="38582"></path><path d="M93.706096 424.246241a137.121913 137.121913 0 0 0-0.767712 37.831147 113.024283 113.024283 0 0 0 19.107501 43.077179h1.535424l2.047233-1.961931c12.368695-11.728935 25.633054-20.30172 38.598858-27.339081a62.269982 62.269982 0 0 1-6.269649-8.530135 50.7543 50.7543 0 0 1-5.459286-33.907284l-48.749718-9.383148v0.213253M304.229816 210.651672c4.137115 0.980965 8.316881 2.175184 12.709901 3.838561 4.43567 1.706027 8.956641 3.710609 13.434961 5.928443 7.421217 3.582657 14.927735 7.677121 22.306302 12.02749 0.170603 7.250614 0.554459 14.629181 1.023616 22.007747 0.725061 16.164605 2.814944 33.821983 2.431089 49.815986 0 4.648923-0.554459 8.87134-0.853014 13.477612a79.756758 79.756758 0 0 1-2.047232 13.136408c-1.066267 4.819526-2.985547 8.913991-4.947478 13.221708a41.882961 41.882961 0 0 1-7.63447 11.814236l-0.085302 0.042651-37.44729-32.585114a32.414511 32.414511 0 0 0 8.359531-17.486776c1.407472-6.184348 1.706027-13.434962 0.895665-22.562205-0.63976-8.913991-2.772294-19.875213-4.222417-31.134992a462.034737 462.034737 0 0 1-3.753259-36.978133l-0.170603-4.563622" fill="#70B602" p-id="38583"></path><path d="M113.62396 505.154567h86.154359c13.30701-7.165313 27.040526-14.160023 39.579824-21.623891 10.108209-6.397601 21.709192-13.008455 29.727519-21.069432a54.592861 54.592861 0 0 0 5.544587-6.226999c2.047232-2.132534 3.838561-4.265067 5.459286-6.610854 3.1988-4.520971 5.459286-9.5111 6.824108-14.927735l0.085301-0.213254-47.384897-14.885084a34.205839 34.205839 0 0 1-8.27423 15.140988 57.535757 57.535757 0 0 1-13.093757 10.022909c-8.700737 5.672539-21.026782 11.131826-35.400058 17.444125-9.255196 4.051814-19.192803 8.402183-28.618602 13.648215a178.79162 178.79162 0 0 0-38.598858 27.381732l-2.004582 1.961931M218.88582 185.061269l-0.255904 0.213253 33.566079 36.551627c6.738806-5.971094 12.795202-9.681703 19.491358-11.643634 5.971094-1.535424 12.240743-2.089883 19.107501-1.663376 4.307718 0.298555 8.786039 1.023616 13.434962 2.132533a108.673914 108.673914 0 0 1 26.144862 9.809655c7.421217 3.540006 14.927735 7.677121 22.306302 11.984839l2.857595 1.706027-42.991878-74.340123h-0.255904a116.948144 116.948144 0 0 0-20.685576-2.814944 80.396518 80.396518 0 0 0-22.604857 1.791328 104.750052 104.750052 0 0 0-50.11454 26.230164" fill="#39AAFF" p-id="38584"></path><path d="M642.279048 90.67533l0.213253 0.085301-14.885085 47.342247a52.673581 52.673581 0 0 0-25.888958-1.108917 55.14732 55.14732 0 0 0-23.500521 11.302428 140.832521 140.832521 0 0 0-22.946062 22.988712 272.281894 272.281894 0 0 0-21.325336 29.940773l-2.388438 3.667957c-4.265067-6.696156-8.743388-14.671831-13.605564-23.457869l-6.269649-10.918573-6.781457-10.833271c3.710609-6.525553 7.719772-13.30701 12.155442-19.448706 10.065559-14.074722 22.391603-28.789204 39.835728-39.878379 9.937607-5.885793 21.709192-10.662668 35.229456-13.30701 7.762422-1.833979 15.780749-1.450123 24.225582-0.938315 8.402183 0.63976 17.188221 2.004582 25.931609 4.563622M478.969622 204.339373c8.103628 11.686284 16.121954 24.524137 24.396185 35.826565l2.004581 2.644341c-5.757841 7.549169-11.942188 14.245325-18.766296 19.320755-3.838561 3.412054-7.890374 6.226998-12.198092 8.316881-4.222417 2.345787-8.956641 3.070848-13.648215 4.691574H460.629833L449.881863 226.730976c3.667958-1.151568 6.909409-2.132534 9.809655-3.454705A34.077887 34.077887 0 0 0 467.581892 217.902287c3.881211-3.412054 7.59182-7.890374 11.38773-13.648216" fill="#3090D8" p-id="38585"></path><path d="M373.622461 102.318964l-0.341206 0.170602 16.207256 46.91574c4.137115-1.450123 7.933025-2.473739 11.558332-2.900245 3.710609-0.213253 7.250614-0.042651 10.577367 0.426506 5.971094 0.853013 11.814236 2.857595 17.78533 5.928444 10.321463 5.032779 21.026782 15.140989 30.964389 27.040526 6.440252 7.59182 12.539298 15.908701 18.553042 24.438836 8.103628 11.686284 16.121954 24.524137 24.438836 35.826565l2.004581 2.644341c6.653505 8.444833 13.690866 17.913283 21.53859 24.524137 8.615436 6.781457 17.785331 13.221709 28.575951 14.58653h0.213253l9.425799-48.707068a32.158607 32.158607 0 0 1-15.482194-6.610854c-3.79591-2.857595-7.250614-7.250614-11.003874-11.643634a116.905494 116.905494 0 0 1-7.080012-10.065559c-4.265067-6.696156-8.743388-14.671831-13.605564-23.457869l-6.269649-10.918573-6.781457-10.833271c-8.913991-13.648215-19.619309-28.149444-34.077887-40.432837a111.318256 111.318256 0 0 0-41.712358-20.770878 108.290058 108.290058 0 0 0-26.656671-1.748677c-4.691574 0.213253-9.5111 0.725061-14.373276 1.492773-4.904827 0.767712-9.596401 2.473739-14.458578 4.137115" fill="#93E505" p-id="38586"></path><path d="M373.068002 102.574868a135.159982 135.159982 0 0 0-23.329918 11.003873 96.859678 96.859678 0 0 0-18.297139 15.354242c-8.913991 9.383148-15.354242 19.320755-19.320754 30.111375l0.767712 1.322171 2.686992 0.682411c3.966513 1.023616 7.847724 2.217835 11.600983 3.540006a210.864926 210.864926 0 0 1 31.348244 16.079303c2.55904-6.824108 5.757841-12.795202 9.724354-17.614727a52.033821 52.033821 0 0 1 21.197384-13.648216l-16.164605-46.91574-0.213253 0.042651M663.263179 178.023908c2.303136 8.316881 3.838561 17.614728 4.648923 27.381732 0.767712 7.890374 0.853013 16.50581 0.63976 25.334499a288.318547 288.318547 0 0 0-18.510392 11.771586c-14.117373 9.681703-27.808239 19.0222-41.925611 26.997876a99.248115 99.248115 0 0 1-24.396185 10.705318c-4.691574 1.23687-9.425799 2.644342-14.074722 2.857595-4.606273 0.426507-9.084593-0.426507-13.818818-1.108917l-0.085301-0.042651 9.383148-48.707068a36.76488 36.76488 0 0 0 19.192802-1.023616c6.056396-1.91928 12.752551-6.35495 20.045817-11.131826 7.421217-4.904827 15.610146-11.515682 24.73739-18.808946l14.58653-11.259778c5.032779-3.710609 10.193511-7.165313 15.738098-10.620017l3.838561-2.345787" fill="#70B602" p-id="38587"></path><path d="M312.887903 160.40918L356.050383 234.962556c12.453996 7.122662 25.590404 15.908701 38.385606 23.201966 5.416635 3.15615 10.875922 5.971094 16.249906 8.359531 5.587238 2.772294 11.217127 5.246033 16.761714 6.909409 5.587238 1.87663 10.875922 2.217835 16.505811 2.942897 5.587238 0.597109 11.089175 0.298555 16.50581-1.194219l0.170603-0.042651-10.74797-48.493814a33.60873 33.60873 0 0 1-17.316173 0.127952 84.789537 84.789537 0 0 1-15.055687-6.056396c-9.340497-4.819526-20.30172-12.965804-32.96897-22.391603-8.103628-5.971094-16.548461-11.771586-25.97426-17.657379a216.963972 216.963972 0 0 0-31.390895-16.079303 159.897372 159.897372 0 0 0-11.600983-3.582657l-2.686992-0.63976M642.833506 90.888583l-0.341205-0.127952-14.885085 47.342247c8.530135 3.113499 14.58653 6.99471 19.66196 11.686284 4.43567 4.222417 8.27423 8.87134 11.174477 15.18364 1.87663 4.009163 3.454704 8.402183 4.776875 13.051106 2.345787 8.316881 3.838561 17.614728 4.691574 27.424382 0.725061 7.890374 0.853013 16.46316 0.63976 25.291849l-0.085301 3.412054 42.991878-74.297472-0.085302-0.298555a95.75076 95.75076 0 0 0-20.813528-37.873797c-11.089175-13.776167-28.106793-23.628473-47.726103-30.793786" fill="#39AAFF" p-id="38588"></path><path d="M935.97158 410.89658v0.213254l-48.408514 10.705319a55.18997 55.18997 0 0 0-11.643633-23.074014c-4.904827-6.056396-12.795202-10.74797-21.751844-14.629181a136.780707 136.780707 0 0 0-31.049689-8.530135 398.82644 398.82644 0 0 0-36.850181-3.454704l-4.307718-0.255904c3.667958-7.037361 8.786039-15.140989 13.520263-23.500521 3.838561-6.866758 8.103628-14.245325 12.155442-22.093048 7.378566 0.042651 15.098338 0.213253 23.031363 0.725061 17.827981 1.322171 35.698613 5.203382 54.422258 14.671832 10.662668 5.416635 20.003165 13.520263 29.002458 23.927027 10.662668 11.728935 17.273522 27.637636 21.879795 45.295014m-180.07114-84.576283l-18.595694 38.897413-1.364821 3.070848a152.305552 152.305552 0 0 1-26.272815-6.312299 51.138157 51.138157 0 0 1-12.837852-6.781457c-3.923862-2.686992-8.018326-5.459286-11.259778-9.169895l-0.085301-0.127952 36.551627-33.60873c5.07543 5.800491 10.833271 8.316881 16.719063 10.705319a63.976009 63.976009 0 0 0 17.145571 3.326753" fill="#3090D8" p-id="38589"></path><path d="M791.641703 183.995002L791.385799 183.781749l-32.585114 37.44729c6.525553 5.928444 10.534716 11.686284 13.30701 17.870632 2.601691 5.203382 3.412054 11.686284 3.625307 18.425091 0.255904 11.942188-2.303136 25.547753-7.63447 40.176933a362.65867 362.65867 0 0 1-12.240743 28.575951l-18.553043 38.982715-1.407472 3.070848a186.38344 186.38344 0 0 0-10.364113 30.708484 51.820567 51.820567 0 0 0-1.151568 16.292557 41.499105 41.499105 0 0 0 2.55904 15.780749l0.042651 0.213254 46.95839-16.121955a32.32921 32.32921 0 0 1-1.620725-16.847015c0.938315-4.862177 1.833979-9.596401 4.265067-15.22629 1.407472-3.497355 3.1988-7.250614 5.331334-11.217127 3.667958-7.037361 8.786039-15.140989 13.562914-23.500521 3.881211-6.909409 8.103628-14.245325 12.155442-22.17835 7.59182-14.671831 15.013037-31.348244 17.742679-49.645383 2.132534-14.074722 2.686992-30.367279-2.942896-46.361281a115.37007 115.37007 0 0 0-11.259778-24.396185 132.51564 132.51564 0 0 0-19.534008-21.837144" fill="#93E505" p-id="38590"></path><path d="M791.215197 183.568495a84.448332 84.448332 0 0 0-21.282686-14.415927 117.204048 117.204048 0 0 0-22.135699-8.615436 104.238244 104.238244 0 0 0-35.826565-1.535424l-0.810363 1.364821 0.725061 2.729643c4.009163 16.420509 5.246033 31.604148 4.520972 46.787788 7.080012-1.066267 13.648215-1.023616 19.747261 0.085302 7.762422 1.535424 15.268941 4.265067 22.647507 11.217126l32.585114-37.44729-0.170602-0.170603M871.057256 472.526802a149.703861 149.703861 0 0 1-21.751843 17.74268 304.013995 304.013995 0 0 1-21.240035 13.221709c-6.482902-3.412054-13.136407-6.824108-19.875214-10.065559a866.235162 866.235162 0 0 1-44.271398-22.903411 113.664043 113.664043 0 0 1-21.325336-15.908701 49.261527 49.261527 0 0 1-9.383148-10.74797 35.911866 35.911866 0 0 1-3.15615-6.099046c-1.066267-2.047232-2.175184-4.137115-2.985547-6.35495l-0.042651-0.085301 46.958391-16.121955c2.900246 6.866758 5.928444 11.643634 10.620017 15.994003 4.691574 4.265067 11.217127 8.103628 19.66196 11.856887 16.036653 7.847724 39.153318 15.22629 62.909743 27.381731l3.881211 2.132534" fill="#70B602" p-id="38591"></path><path d="M711.159884 160.40918L667.997403 234.962556c-0.426507 15.055687-0.853013 29.77017-0.853013 44.655254-0.213253 12.880503 0.597109 25.035945 3.369403 36.253072 1.151568 5.843142 2.942896 11.259778 5.501937 16.121954 2.772294 4.648923 5.544587 9.5111 9.340497 13.733517l0.127952 0.127952 36.551627-33.60873c-4.563622-4.862177-6.610854-10.065559-8.615436-15.098339a52.63093 52.63093 0 0 1-2.431089-15.9087 143.093007 143.093007 0 0 1 0.853014-18.33979c0.426507-6.525553 1.151568-13.648215 1.961931-21.325336 0.980965-9.809655 2.132534-20.472323 2.644341-31.7321a161.603399 161.603399 0 0 0-4.563622-46.830439l-0.725061-2.686992" fill="#39AAFF" p-id="38592"></path><path d="M936.099532 411.451039L936.01423 411.109834 887.520415 421.815153a36.636928 36.636928 0 0 1 1.322171 12.198092c-0.127952 3.753259-0.63976 7.250614-1.492773 10.620018a56.341539 56.341539 0 0 1-7.634471 17.316173 57.919613 57.919613 0 0 1-8.658086 10.577366 149.703861 149.703861 0 0 1-21.751843 17.74268 314.676663 314.676663 0 0 1-21.240035 13.264359L825.207783 505.154567h85.855804l0.213253-0.213253c8.786039-9.724353 16.719064-21.837144 22.221001-36.892832 3.369403-8.188929 4.222417-17.14557 4.904827-26.741972 0.255904-9.5111 0.383856-19.747261-2.303136-29.855471" fill="#39AAFF" p-id="38593"></path></svg>