<?xml version="1.0" standalone="no"?><!DOCTYPE svg PUBLIC "-//W3C//DTD SVG 1.1//EN" "http://www.w3.org/Graphics/SVG/1.1/DTD/svg11.dtd"><svg t="1743853617785" class="icon" viewBox="0 0 1024 1024" version="1.1" xmlns="http://www.w3.org/2000/svg" p-id="51261" xmlns:xlink="http://www.w3.org/1999/xlink" width="200" height="200"><path d="M924.8 175.2v132.4h-70V175.1c0-6.4-2.6-12.6-7.1-17.2-4.5-4.5-10.7-7-17.3-7H193.5c-12.8 0-23.4 10-24.2 22.6v134h-70V177.9c-0.1-0.9-0.1-1.8-0.1-2.7 0-52 42.3-94.3 94.3-94.3h636.8c25.3 0 49 9.8 66.7 27.6 17.7 17.5 27.8 41.9 27.8 66.7zM924.8 848.8V716.5h-70v132.4c0 6.4-2.6 12.6-7.1 17.2-4.5 4.5-10.7 7-17.3 7H193.5c-12.8 0-23.4-10-24.2-22.6v-134h-70v129.6c-0.1 0.9-0.1 1.8-0.1 2.7 0 52 42.3 94.3 94.3 94.3h636.8c25.3 0 49-9.8 66.7-27.6 17.7-17.7 27.8-41.8 27.8-66.7z" fill="#91B1D5" p-id="51262"></path><path d="M449.1 815.8L320.8 431.1l-38.7 114.8H129v-70h102.9l89.3-265.2L448.9 594l127.9-385.8L705.1 591l38.8-115.1H895v70H794.1l-89.2 264.9-127.7-381.2z" fill="#d81e06" p-id="51263"></path></svg>