<?xml version="1.0" standalone="no"?><!DOCTYPE svg PUBLIC "-//W3C//DTD SVG 1.1//EN" "http://www.w3.org/Graphics/SVG/1.1/DTD/svg11.dtd"><svg t="1743844340089" class="icon" viewBox="0 0 1024 1024" version="1.1" xmlns="http://www.w3.org/2000/svg" p-id="15550" xmlns:xlink="http://www.w3.org/1999/xlink" width="200" height="200"><path d="M512 512m-480 0a480 480 0 1 0 960 0 480 480 0 1 0-960 0Z" fill="#FCC74B" p-id="15551"></path><path d="M760 636.8c-1.6-8-4.8-14.4-8-20.8l16-25.6-22.4-22.4-25.6 16c-6.4-4.8-12.8-6.4-20.8-8l-6.4-27.2h-32l-6.4 27.2c-6.4 1.6-14.4 4.8-20.8 8l-25.6-16-20.8 24 16 25.6c-4.8 6.4-6.4 12.8-8 20.8l-27.2 6.4v32l27.2 6.4c1.6 8 4.8 14.4 8 20.8l-16 25.6 22.4 22.4 25.6-16c6.4 4.8 12.8 6.4 20.8 8l6.4 27.2h32l6.4-27.2c6.4-1.6 14.4-4.8 20.8-8l25.6 16 22.4-22.4-16-25.6c4.8-6.4 6.4-12.8 8-20.8l27.2-6.4v-32l-28.8-8z" fill="#FFFFFF" p-id="15552"></path><path d="M678.4 702.4c-24 0-43.2-20.8-43.2-43.2 0-24 20.8-43.2 43.2-43.2 24 0 43.2 20.8 43.2 43.2 1.6 25.6-17.6 43.2-43.2 43.2z" fill="#F7D292" p-id="15553"></path><path d="M556.8 664c0-33.6 11.2-67.2 30.4-91.2-4.8-3.2-8-6.4-9.6-8-4.8-4.8-6.4-8-8-12.8-1.6-4.8-3.2-9.6-3.2-12.8v-16c0-8 3.2-16 8-20.8 4.8-4.8 11.2-9.6 17.6-14.4 3.2-3.2 4.8-6.4 8-11.2 1.6-4.8 4.8-9.6 6.4-14.4 1.6-4.8 3.2-11.2 4.8-17.6 3.2 0 4.8-1.6 8-4.8 1.6-1.6 4.8-4.8 6.4-8 3.2-3.2 4.8-8 6.4-14.4 1.6-6.4 3.2-12.8 1.6-17.6-1.6-4.8-1.6-9.6-3.2-12.8-1.6-4.8-3.2-8-6.4-11.2 0-12.8 0-27.2-1.6-40-1.6-11.2-4.8-24-8-35.2-4.8-12.8-9.6-25.6-17.6-33.6-6.4-9.6-14.4-17.6-22.4-25.6-8-6.4-17.6-11.2-25.6-14.4s-17.6-6.4-27.2-8c-8-1.6-17.6-1.6-25.6-1.6h-4.8c-8 0-17.6 0-25.6 1.6-9.6 1.6-17.6 4.8-27.2 8-8 3.2-17.6 8-25.6 14.4s-16 14.4-22.4 25.6c-8 11.2-12.8 22.4-17.6 33.6-4.8 12.8-6.4 25.6-8 35.2-1.6 14.4-3.2 27.2-1.6 40-3.2 4.8-4.8 8-6.4 11.2-1.6 3.2-3.2 8-3.2 12.8 0 4.8 0 11.2 1.6 17.6 1.6 6.4 4.8 11.2 6.4 14.4 3.2 3.2 4.8 6.4 6.4 8 3.2 1.6 4.8 3.2 8 4.8 1.6 4.8 3.2 11.2 4.8 17.6 1.6 4.8 4.8 9.6 6.4 14.4s4.8 8 8 11.2c4.8 4.8 11.2 9.6 17.6 14.4 4.8 4.8 8 11.2 8 20.8v16c0 4.8 0 9.6-3.2 12.8-1.6 4.8-4.8 8-8 12.8-4.8 4.8-9.6 9.6-17.6 12.8-9.6 6.4-20.8 11.2-32 14.4-12.8 3.2-67.2 22.4-78.4 25.6-11.2 3.2-22.4 9.6-28.8 17.6-8 6.4-14.4 17.6-17.6 28.8-3.2 24-4.8 27.2-3.2 41.6 1.6 14.4 4.8 24 9.6 27.2 3.2 3.2 12.8 4.8 27.2 9.6 16 3.2 112 22.4 224 22.4 30.4 0 60.8-1.6 88-4.8-12.8-32-24-64-24-96z" fill="#FFFFFF" p-id="15554"></path></svg>