<?xml version="1.0" standalone="no"?><!DOCTYPE svg PUBLIC "-//W3C//DTD SVG 1.1//EN" "http://www.w3.org/Graphics/SVG/1.1/DTD/svg11.dtd"><svg t="1748073245197" class="icon" viewBox="0 0 1024 1024" version="1.1" xmlns="http://www.w3.org/2000/svg" p-id="28100" xmlns:xlink="http://www.w3.org/1999/xlink" width="200" height="200"><path d="M326.369186 938.010619s42.953823 31.417654 68.603391 0L383.559133 320.580091l20.004209-20.004209s5.768085-65.657987 45.776503-105.666405-51.421863-71.548797-61.362604-36.817563-5.64536 51.421863-18.531507 50.071886-2.82268-61.362605-14.35885-64.676185-68.726117 18.531507-50.071885 51.421862a197.587587 197.587587 0 0 1 21.354187 104.316428c-2.82268 24.299591 0 638.784714 0 638.784714zM495.484524 353.347722s-1.227252-101.616473 99.65287-131.070523 111.066314-55.717245 142.974868-61.362605 79.40321 67.007964 12.272521 94.621137-151.320183 64.921636-161.015474 110.452688-102.47555 100.634672-93.884785-12.640697z" fill="#0F578A" p-id="28101"></path><path d="M397.672532 307.080318s22.090538-107.752734 88.853051-142.115792 7.608963-121.866133 7.608963-121.866133-13.377048-36.817563 41.849297-42.831097 24.545042 91.430281 38.16754 93.393884-3.804481-32.03128 20.986011-54.980894 72.407873-1.963603 61.362604 43.8129-13.254323 76.212355 24.545042 87.625799 22.949614 53.385466-32.399455 45.776503-136.593158 83.944043-136.838608 119.166178S490.330065 876.279838 490.330065 876.279838l3.313581 134.138654s-49.090084 30.558577-85.907647 0l-1.840878-211.455535z" fill="#FF9B85" p-id="28102"></path><path d="M697.981119 929.174404a331.358065 331.358065 0 0 1-211.455536-48.353733C383.559133 815.039959 183.517042 683.60126 183.517042 517.799502s157.210993-237.227829 257.722939-202.86477 162.979078 34.240333 205.810176 20.004209 151.442908-14.358849 171.815293 77.194156 70.566995 490.900837-120.884331 517.041307z" fill="#F0290C" p-id="28103"></path></svg>