<?xml version="1.0" standalone="no"?><!DOCTYPE svg PUBLIC "-//W3C//DTD SVG 1.1//EN" "http://www.w3.org/Graphics/SVG/1.1/DTD/svg11.dtd"><svg t="1750922458161" class="icon" viewBox="0 0 1024 1024" version="1.1" xmlns="http://www.w3.org/2000/svg" p-id="7117" xmlns:xlink="http://www.w3.org/1999/xlink" width="200" height="200"><path d="M204.896 523.338667A202.784 202.784 0 0 1 149.333333 383.402667C149.333333 271.808 238.634667 181.333333 348.8 181.333333c67.466667 0 127.104 47.264 163.2 99.2 36.096-51.936 95.733333-99.2 163.2-99.2C785.365333 181.333333 874.666667 271.808 874.666667 383.402667a202.773333 202.773333 0 0 1-60.725334 145.184L519.690667 834.666667a10.666667 10.666667 0 0 1-15.381334 0L204.906667 523.338667z" fill="#FFA6A6" p-id="7118"></path><path d="M189.514667 538.133333l-0.106667-0.117333A224.117333 224.117333 0 0 1 128 383.402667C128 260.288 226.592 160 348.8 160c66.528 0 124.149333 39.637333 163.2 85.6C551.050667 199.637333 608.672 160 675.2 160 797.408 160 896 260.288 896 383.402667a224.106667 224.106667 0 0 1-66.88 160.192L535.061333 849.450667a32 32 0 0 1-46.133333 0L189.525333 538.133333z m624.426666-9.546666A202.773333 202.773333 0 0 0 874.666667 383.413333C874.666667 271.797333 785.365333 181.333333 675.2 181.333333c-59.626667 0-113.152 36.938667-149.706667 81.386667-4.8 5.824-9.301333 11.786667-13.493333 17.813333a277.002667 277.002667 0 0 0-13.493333-17.813333C461.952 218.261333 408.437333 181.333333 348.8 181.333333 238.634667 181.333333 149.333333 271.808 149.333333 383.402667c0 54.314667 21.152 103.626667 55.562667 139.936l299.413333 311.328a10.666667 10.666667 0 0 0 15.381334 0l294.250666-306.08z" fill="#E15252" p-id="7119"></path><path d="M150.432 362.069333a202.528 202.528 0 0 0 54.464 118.602667l299.413333 311.328a10.666667 10.666667 0 0 0 15.381334 0l294.250666-306.08a202.528 202.528 0 0 0 59.626667-123.84c0.725333 7.008 1.098667 14.122667 1.098667 21.333333a202.762667 202.762667 0 0 1-60.725334 145.173334L519.690667 834.666667a10.666667 10.666667 0 0 1-15.381334 0L204.906667 523.338667A202.784 202.784 0 0 1 149.333333 383.402667c0-7.2 0.373333-14.325333 1.098667-21.333334z" fill="#FC7E7E" p-id="7120"></path><path d="M206.133333 349.589333c-21.386667-19.669333-12.736-63.893333 19.338667-98.794666 32.074667-34.890667 75.413333-47.232 96.810667-27.573334 21.397333 19.669333 12.736 63.893333-19.338667 98.794667-32.064 34.88-75.413333 47.232-96.810667 27.573333zM566.026667 299.541333c-12.16-19.136 3.274667-50.730667 34.485333-70.570666 31.210667-19.84 66.368-20.405333 78.538667-1.269334 12.16 19.136-3.285333 50.730667-34.496 70.570667-31.210667 19.84-66.368 20.405333-78.528 1.269333z" fill="#FFD1D1" p-id="7121"></path><path d="M273.973333 233.546667a10.666667 10.666667 0 0 1-2.133333 14.933333c-6.026667 4.522667-19.328 14.965333-25.952 21.6a10.666667 10.666667 0 0 1-15.093333-15.093333c7.829333-7.818667 22.229333-19.061333 28.245333-23.573334a10.666667 10.666667 0 0 1 14.933333 2.133334z" fill="#FFFFFF" p-id="7122"></path><path d="M944.821333 385.088a10.666667 10.666667 0 0 0-11.456 9.813333c-5.12 66.666667-36 126.165333-66.112 169.386667a491.221333 491.221333 0 0 1-40.608 50.72 386.368 386.368 0 0 1-16.650666 17.066667l-0.906667 0.853333-0.213333 0.192-0.042667 0.042667a10.666667 10.666667 0 0 0 14.346667 15.786666l-7.178667-7.893333 7.178667 7.893333 0.032-0.042666 0.085333-0.074667 0.288-0.266667 1.066667-0.992a407.264 407.264 0 0 0 17.706666-18.133333 512.352 512.352 0 0 0 42.389334-52.96c31.221333-44.778667 64.352-107.946667 69.888-179.946667a10.666667 10.666667 0 0 0-9.813334-11.445333zM994.752 481.408a10.666667 10.666667 0 0 0-13.056 7.562667c-10.208 38.250667-32.064 75.733333-51.776 103.978666a518.272 518.272 0 0 1-25.632 33.706667 402.666667 402.666667 0 0 1-10.08 11.712l-0.533333 0.586667-0.128 0.138666-0.032 0.032m0 0a10.666667 10.666667 0 0 0 15.637333 14.517334l-7.818667-7.253334 7.818667 7.253334 0.074667-0.074667 0.170666-0.192 0.629334-0.682667 2.325333-2.613333c2.005333-2.282667 4.874667-5.589333 8.362667-9.813333a540.298667 540.298667 0 0 0 26.698666-35.114667c20.288-29.077333 43.765333-68.938667 54.890667-110.688a10.666667 10.666667 0 0 0-7.552-13.056M73.845333 385.088a10.666667 10.666667 0 0 1 11.456 9.813333c5.12 66.666667 36 126.165333 66.112 169.386667a491.221333 491.221333 0 0 0 40.608 50.72 386.368 386.368 0 0 0 16.650667 17.066667l0.906667 0.853333 0.213333 0.192 0.053333 0.042667a10.666667 10.666667 0 0 1-14.357333 15.786666l7.178667-7.893333-7.178667 7.893333-0.032-0.042666-0.085333-0.074667-0.288-0.266667a257.322667 257.322667 0 0 1-4.970667-4.778666c-3.338667-3.296-8.096-8.128-13.802667-14.357334a512.352 512.352 0 0 1-42.389333-52.949333c-31.221333-44.778667-64.352-107.946667-69.888-179.946667a10.666667 10.666667 0 0 1 9.813333-11.445333zM23.914667 481.408a10.666667 10.666667 0 0 1 13.056 7.562667c10.208 38.250667 32.064 75.733333 51.776 103.978666a518.325333 518.325333 0 0 0 25.632 33.706667 402.666667 402.666667 0 0 0 10.08 11.712l0.533333 0.586667 0.128 0.138666 0.032 0.032m0 0a10.666667 10.666667 0 0 1-15.637333 14.517334L117.333333 646.4l-7.818666 7.253333-0.074667-0.074666-0.170667-0.192a423.637333 423.637333 0 0 1-11.317333-13.109334 540.096 540.096 0 0 1-26.698667-35.114666c-20.288-29.077333-43.765333-68.938667-54.890666-110.688a10.666667 10.666667 0 0 1 7.552-13.056" fill="#FFA6A6" p-id="7123"></path><path d="M647.36 604.682667a10.197333 10.197333 0 1 1-20.16-3.114667 10.197333 10.197333 0 0 1 20.16 3.114667zM613.898667 677.44a10.197333 10.197333 0 1 1-20.149334-3.104 10.197333 10.197333 0 0 1 20.16 3.114667zM654.272 650.730667a7.648 7.648 0 1 1-15.114667-2.336 7.648 7.648 0 0 1 15.114667 2.346666zM703.616 576.714667a7.648 7.648 0 1 1-15.114667-2.346667 7.648 7.648 0 0 1 15.114667 2.346667zM518.570667 749.461333a7.648 7.648 0 1 1-15.114667-2.336 7.648 7.648 0 0 1 15.114667 2.346667zM516.490667 795.552a7.648 7.648 0 1 1-15.114667-2.336 7.648 7.648 0 0 1 15.114667 2.346667zM729.034667 576.458667a6.005333 6.005333 0 1 1-11.861334-1.834667 6.005333 6.005333 0 0 1 11.861334 1.834667zM581.205333 660.16a6.005333 6.005333 0 1 1-11.861333-1.845333 6.005333 6.005333 0 0 1 11.861333 1.834666zM750.837333 550.410667a6.005333 6.005333 0 1 1-11.861333-1.834667 6.005333 6.005333 0 0 1 11.861333 1.834667zM590.634667 723.989333a10.197333 10.197333 0 1 1-20.16-3.114666 10.197333 10.197333 0 0 1 20.16 3.114666zM611.093333 624.544a15.061333 15.061333 0 1 1-29.76-4.597333 15.061333 15.061333 0 0 1 29.76 4.597333zM689.632 622.613333a15.061333 15.061333 0 1 1-29.76-4.608 15.061333 15.061333 0 0 1 29.76 4.608zM555.232 767.093333a10.197333 10.197333 0 1 1-20.149333-3.114666 10.197333 10.197333 0 0 1 20.16 3.114666zM567.242667 697.557333a7.744 7.744 0 1 1-15.317334-2.368 7.744 7.744 0 0 1 15.317334 2.368zM552.533333 672.426667a10.197333 10.197333 0 1 1-20.16-3.114667 10.197333 10.197333 0 0 1 20.16 3.125333zM549.813333 729.984a7.648 7.648 0 1 1-15.114666-2.346667 7.648 7.648 0 0 1 15.114666 2.346667z" fill="#FC7E7E" p-id="7124"></path><path d="M384 310.389333a10.666667 10.666667 0 0 1 10.485333 8.693334L424.853333 481.066667H448a10.666667 10.666667 0 0 1 10.485333 8.693333l5.514667 29.418667 5.514667-29.418667A10.666667 10.666667 0 0 1 480 481.066667h23.146667l14.368-76.64a10.666667 10.666667 0 0 1 20.970666 0L552.853333 481.066667H576a10.666667 10.666667 0 0 1 10.485333 8.693333l5.514667 29.418667 5.514667-29.418667A10.666667 10.666667 0 0 1 608 481.066667h22.293333l15.082667-161.002667a10.666667 10.666667 0 0 1 21.248 0L681.706667 481.066667H736a10.666667 10.666667 0 1 1 0 21.333333h-64a10.666667 10.666667 0 0 1-10.624-9.674667l-5.376-57.386666-5.376 57.386666a10.666667 10.666667 0 0 1-10.624 9.674667h-23.146667l-14.368 76.629333a10.666667 10.666667 0 0 1-20.970666 0l-14.368-76.629333H544a10.666667 10.666667 0 0 1-10.485333-8.704l-5.514667-29.418667-5.514667 29.418667a10.666667 10.666667 0 0 1-10.485333 8.704h-23.146667l-14.368 76.629333a10.666667 10.666667 0 0 1-20.970666 0l-14.368-76.629333H416a10.666667 10.666667 0 0 1-10.485333-8.704L384 378.933333l-21.514667 114.752a10.666667 10.666667 0 0 1-10.485333 8.704h-64a10.666667 10.666667 0 1 1 0-21.333333h55.146667l30.368-161.973333A10.666667 10.666667 0 0 1 384 310.4z" fill="#FFFFFF" p-id="7125"></path></svg>